<svg id="Layer_1" data-name="Layer 1" xmlns="http://www.w3.org/2000/svg" viewBox="0 0 24 24"><defs><style>.cls-1{fill:none;}</style></defs><title>icon_gp</title><path class="cls-1" d="M0,0H24V24H0Z"/><path d="M12.1,8.59l.37-.27A6.14,6.14,0,0,1,13,6.58,5.31,5.31,0,0,1,14.71,4.5a8.49,8.49,0,0,1,2.61-1.13,6.35,6.35,0,0,1,1.9-.13,2.8,2.8,0,0,1,2.09.85,1,1,0,0,1,.19.48,1,1,0,0,1-.39.75,5.51,5.51,0,0,1-1.77.88c-.89.3-2.1.61-3.31.89a18.91,18.91,0,0,0-2.31.68l-.36.15a6,6,0,0,0-.3.93A6.91,6.91,0,0,1,15,10a13.45,13.45,0,0,1,2.07,2,12.88,12.88,0,0,1,2.43,4.39c.49,1.87.18,3.65-.87,4.15s-2.42-.22-3.39-1.22A9.81,9.81,0,0,1,13,15.57a16.92,16.92,0,0,1-.73-4.8c0-.38,0-.6,0-.94a1.35,1.35,0,0,0-1.48.07A12.13,12.13,0,0,0,8.2,12.42c-.25.29-.58.72-.93,1.16a8.72,8.72,0,0,1-1.45,1.54,2.34,2.34,0,0,1-2.63.16,1.89,1.89,0,0,1-.68-1.52,2.31,2.31,0,0,1,.31-1.2A5.79,5.79,0,0,1,4.21,11a12.2,12.2,0,0,1,3-1.72,9.59,9.59,0,0,1,4.88-.7h0Z"/></svg>