<svg id="Layer_1" data-name="Layer 1" xmlns="http://www.w3.org/2000/svg" viewBox="0 0 24 24"><defs><style>.cls-1{fill:none;}</style></defs><title>icon_email</title><rect class="cls-1" width="24" height="24" transform="translate(0 24) rotate(-90)"/><g id="Icons_with_numbers" data-name="Icons with numbers"><g id="Group"><path id="Shape" d="M13.81,12.51,19,16.94a1.05,1.05,0,0,1-.72.28H5.74A1.05,1.05,0,0,1,5,16.94l5.17-4.43L12,14.09ZM12,13l-7-6a1.05,1.05,0,0,1,.72-.28H18.26a1.05,1.05,0,0,1,.72.28Zm7.31,3.33-5-4.29,5-4.39v8.68Zm-14.62,0V7.7l5,4.39-5,4.29Z"/></g></g></svg>