<svg id="Layer_1" data-name="Layer 1" xmlns="http://www.w3.org/2000/svg" viewBox="0 0 24 24"><defs><style>.cls-1{fill:none;}</style></defs><title>icon_doctor</title><path id="_Path_" data-name="&lt;Path&gt;" d="M18.69,13.71a2.49,2.49,0,0,0-2.36-1.27A2.49,2.49,0,0,0,14,13.71a2.81,2.81,0,0,0-.33,1.22V17.2a1.33,1.33,0,0,1-1.45,1.31,1.28,1.28,0,0,1-1.25-.61,1.68,1.68,0,0,1-.2-.7V14.78a1.12,1.12,0,0,0,.38-.49,4.71,4.71,0,0,0,.59-.12,3.34,3.34,0,0,0,2.43-2.24L15.2,7.57a1.84,1.84,0,0,0-1-2.13h0a1.4,1.4,0,1,0-.4,1,.73.73,0,0,1,.34.85l-1,4.31a2.36,2.36,0,0,1-2,1.59,1.11,1.11,0,0,0-1.82,0l-.39-.08a2.21,2.21,0,0,1-1.64-1.49L6.09,7.33v0C6,7.1,6,6.79,6.46,6.45A1.4,1.4,0,1,0,6.08,5.4L6,5.44A1.84,1.84,0,0,0,5,7.57L6,11.9v0a3.33,3.33,0,0,0,2.43,2.24,4.72,4.72,0,0,0,.59.12,1.12,1.12,0,0,0,.45.53v2.38a2.78,2.78,0,0,0,.33,1.22,2.49,2.49,0,0,0,2.36,1.27,2.49,2.49,0,0,0,2.36-1.27,2.79,2.79,0,0,0,.33-1.22V14.93a1.31,1.31,0,0,1,1.45-1.31,1.28,1.28,0,0,1,1.25.61,1.7,1.7,0,0,1,.2.7v1.14a.62.62,0,0,0,1.24,0V14.92a2.78,2.78,0,0,0-.33-1.22"/><path id="_Compound_Path_" data-name="&lt;Compound Path&gt;" d="M17,16.63a1.21,1.21,0,1,0,1.21,1.21A1.21,1.21,0,0,0,17,16.63m0,3.29a2.08,2.08,0,1,1,2.08-2.08A2.08,2.08,0,0,1,17,19.92"/><rect class="cls-1" width="24" height="24"/></svg>