<svg id="Layer_1" data-name="Layer 1" xmlns="http://www.w3.org/2000/svg" viewBox="0 0 65 65"><defs><style>.cls-1{fill:#fdd109;}.cls-2{fill:#1c97d4;}</style></defs><title>icon_colored_circular_ask_a_question</title><circle class="cls-1" cx="32.55" cy="32.34" r="32.5"/><path class="cls-2" d="M28.86,39.46a15,15,0,0,1,.85-5.55,11.39,11.39,0,0,1,3.1-4.07,15.85,15.85,0,0,0,3-3.26,5.13,5.13,0,0,0,.75-2.66q0-4.21-3.88-4.21a3.93,3.93,0,0,0-2.95,1.14A4.45,4.45,0,0,0,28.56,24H21.34a9.6,9.6,0,0,1,3.07-7.45q3-2.69,8.25-2.69t8.19,2.55a9.08,9.08,0,0,1,2.91,7.21,8.78,8.78,0,0,1-.95,4,16.49,16.49,0,0,1-3.31,4.17l-2,1.92a6.84,6.84,0,0,0-2.17,4.26l-.1,1.52Zm-.72,7.63a3.62,3.62,0,0,1,1.13-2.74,4.43,4.43,0,0,1,5.8,0,3.87,3.87,0,0,1,0,5.45,4,4,0,0,1-2.92,1.07,4,4,0,0,1-2.92-1.07A3.6,3.6,0,0,1,28.13,47.09Z"/></svg>