<svg id="Layer_1" data-name="Layer 1" xmlns="http://www.w3.org/2000/svg" viewBox="0 0 65 65"><defs><style>.cls-1{fill:#fdd109;}.cls-2{fill:#1c97d4;}.cls-3{fill:none;}</style></defs><title>icon_colored_circular_renowned_doctors</title><circle id="_Path_" data-name="&lt;Path&gt;" class="cls-1" cx="32.53" cy="32.53" r="32.53"/><g id="_Group_" data-name="&lt;Group&gt;"><path id="_Compound_Path_" data-name="&lt;Compound Path&gt;" class="cls-2" d="M33.32,8.37c.16,0,.32.11.49.15a5.61,5.61,0,1,1-2.68,0c.18,0,.35-.12.52-.17Zm-.77,4.22A1.41,1.41,0,1,0,33.93,14,1.41,1.41,0,0,0,32.54,12.58Z"/><path id="_Path_2" data-name="&lt;Path&gt;" class="cls-2" d="M25.46,13.72a7.06,7.06,0,1,0,14.11,0c2.51,1,4.68,6.47,4.1,10.24a11.26,11.26,0,0,1-21.82,1.91A11.05,11.05,0,0,1,25.46,13.72Z"/><path id="_Path_3" data-name="&lt;Path&gt;" class="cls-2" d="M27.78,34.65l-3.57,2.65c-.62.46-1.22.95-1.84,1.42a8.43,8.43,0,0,0-3.26,6.42c0,.67,0,1.34-.12,2a.8.8,0,0,0,.55.94,29.62,29.62,0,0,0,3.85,1.39,39.91,39.91,0,0,0,19.27-.26,19.78,19.78,0,0,0,3-1.25.7.7,0,0,0,.36-.5,16.55,16.55,0,0,0-.57-4.85,7.38,7.38,0,0,0-2.58-3.71c-1.7-1.34-3.45-2.61-5.17-3.92l-.51-.38.37-.16c.92-.43,1.84-.87,2.76-1.29a.65.65,0,0,1,.53,0c1.45,1.08,2.92,2.15,4.32,3.3a11,11,0,0,1,4,7.69c.12,1.12.14,2.25.23,3.37A3.05,3.05,0,0,1,48,50.42a16.58,16.58,0,0,1-3.16,1.64,31.11,31.11,0,0,1-8,1.62,44.71,44.71,0,0,1-9.7-.11,26.64,26.64,0,0,1-8.26-2A11.33,11.33,0,0,1,16.55,50a2.57,2.57,0,0,1-.93-2.26c.14-1.66.2-3.34.47-5a10.27,10.27,0,0,1,3.83-6.37c1.38-1.12,2.82-2.17,4.24-3.23a.47.47,0,0,1,.4-.07C25.64,33.57,26.7,34.11,27.78,34.65Z"/><path id="_Path_4" data-name="&lt;Path&gt;" class="cls-2" d="M42.63,45.43H39.32v3.35H35.92V45.45H32.56V42.08h3.33V38.72h3.39V42h3.35Z"/></g><rect class="cls-3" width="65.07" height="65.07"/></svg>