<svg id="Layer_1" data-name="Layer 1" xmlns="http://www.w3.org/2000/svg" viewBox="0 0 65 65"><defs><style>.cls-1{fill:#fdd109;}.cls-2{fill:#1d96d4;}</style></defs><title>icon_colored_circular_jibon</title><circle id="_Ellipse_" data-name="&lt;Ellipse&gt;" class="cls-1" cx="32.5" cy="32.5" r="32.5"/><g id="_Group_" data-name="&lt;Group&gt;"><circle id="_Path_" data-name="&lt;Path&gt;" class="cls-2" cx="32.5" cy="18.84" r="4.01"/><path id="_Path_2" data-name="&lt;Path&gt;" class="cls-2" d="M38.43,28.57,47.71,19a1.94,1.94,0,0,0,0-2.76,2,2,0,0,0-2.8.14l-7.5,7.73H27.58l-7.5-7.73a2,2,0,0,0-2.8-.14,1.94,1.94,0,0,0,0,2.76l9.27,9.54.18.16V38L24.84,51.68a2.24,2.24,0,0,0,2,2.45,2.33,2.33,0,0,0,2.62-1.91l1.83-13.05h2.35L35.5,52.22a2.33,2.33,0,0,0,2.62,1.91,2.24,2.24,0,0,0,2-2.45L38.25,38V28.73Z"/></g></svg>