<?xml version="1.0" encoding="utf-8"?>
<!-- Generator: Adobe Illustrator 21.0.0, SVG Export Plug-In . SVG Version: 6.00 Build 0)  -->
<svg version="1.1" id="Layer_1" xmlns="http://www.w3.org/2000/svg" xmlns:xlink="http://www.w3.org/1999/xlink" x="0px" y="0px"
	 viewBox="0 0 65 65" enable-background="new 0 0 65 65" xml:space="preserve">
<g>
	<circle id="XMLID_374_" fill="#FDD109" cx="32.5" cy="32.5" r="32.5"/>
	<g id="XMLID_376_">
		<path id="XMLID_409_" fill="#1C97D4" d="M54.1,29.5c-0.1,0.6-0.2,1.2-0.3,1.8c-0.5,2.1-1.3,4.1-2.5,6c-1.3,1.9-2.9,3.7-4.6,5.3
			c-2.7,2.7-5.6,5-8.6,7.2c-1.5,1.1-3,2.1-4.6,3.2c-0.6,0.4-1.3,0.5-1.9,0c-1.7-1.2-3.4-2.4-5.1-3.6c-1.3-1-2.6-2-3.8-3
			c-0.2-0.1-0.2-0.1-0.4,0.1c-1.4,1.3-2.7,2.6-4.1,3.9c-0.8,0.7-1.5,1.4-2.3,2.2c-0.5,0.5-1.5,0.5-2,0c-0.6-0.6-0.7-1.5-0.1-2.1
			c0.9-0.9,1.8-1.7,2.7-2.6c1.1-1.1,2.3-2.2,3.4-3.3c0.1-0.1,0.1-0.1,0.2-0.3c-0.3-0.3-0.7-0.6-1-0.9c-1.7-1.6-3.2-3.2-4.6-5
			c-1.1-1.5-2.1-3.1-2.7-4.9c-1.1-3.1-1.2-6.1-0.1-9.2c0.6-1.7,1.6-3.2,2.8-4.5c1.2-1.2,2.5-2.2,4-2.8c2.1-0.9,4.2-1.2,6.5-1
			c2.1,0.2,4.1,0.9,5.9,2.1c0.5,0.3,0.9,0.7,1.3,1c0.2,0.2,0.3,0.2,0.5,0c1.5-1.4,3.4-2.3,5.4-2.8c2.5-0.6,5-0.5,7.4,0.3
			c2.3,0.8,4.1,2.1,5.7,4c1.6,2,2.6,4.3,2.9,6.9c0,0.1,0,0.2,0.1,0.3C54.1,28.1,54.1,28.8,54.1,29.5z M24.8,44.2
			c0.4,0.3,0.8,0.6,1.2,1c2.1,1.5,4.2,3.1,6.3,4.6c0.1,0.1,0.3,0.1,0.4,0c1.6-1.1,3.1-2.1,4.6-3.3c2-1.6,4-3.3,6-5
			c1.8-1.6,3.4-3.3,4.8-5.3c1.1-1.5,1.9-3,2.4-4.8c0.7-2.4,0.6-4.7-0.4-6.9c-1.4-3-3.7-5-7-5.6c-2-0.4-3.9-0.2-5.8,0.6
			c-1.5,0.6-2.7,1.5-3.7,2.7c-0.7,0.8-1.7,0.7-2.4,0c-0.4-0.4-0.7-0.7-1.1-1.1c-1.5-1.4-3.4-2.2-5.4-2.4c-2.4-0.3-4.6,0.3-6.6,1.7
			c-1.8,1.3-3.1,3-3.8,5c-0.9,2.9-0.4,5.6,0.9,8.2c0.7,1.4,1.7,2.7,2.7,4c1.3,1.5,2.7,2.9,4.1,4.2c0.2,0.1,0.3,0.1,0.4,0
			c0.8-0.8,1.7-1.7,2.6-2.5c0.2-0.2,0.1-0.3,0-0.4c-0.2-0.3-0.4-0.7-0.6-1.1c-0.7-1.6-0.9-3.3-0.6-5.1c0.5-2.4,1.7-4.3,3.7-5.6
			c2.5-1.6,5.1-1.8,7.9-0.9c2.8,1,4.6,3,5.4,5.8c0.5,1.6,0.4,3.3-0.1,4.9c-0.7,2.1-2,3.7-4,4.8c-1.6,0.9-3.3,1.3-5.2,1.1
			c-1.4-0.1-2.8-0.6-4-1.4c-0.2-0.1-0.3-0.1-0.4,0c-0.3,0.3-0.7,0.6-1,1C25.7,43.1,25.3,43.6,24.8,44.2z M32.5,40
			c3.1,0,5.6-2.4,5.7-5.5c0-3.1-2.5-5.6-5.6-5.7c-3.1,0-5.7,2.5-5.7,5.6C26.8,37.5,29.3,40,32.5,40z"/>
	</g>
</g>
</svg>
