<svg id="Layer_1" data-name="Layer 1" xmlns="http://www.w3.org/2000/svg" viewBox="0 0 65 65"><defs><style>.cls-1{fill:#fdd109;}.cls-2{fill:#1d96d4;}</style></defs><title>icon_colored_circular_tonic_cash</title><g id="_Group_" data-name="&lt;Group&gt;"><path id="_Path_" data-name="&lt;Path&gt;" class="cls-1" d="M65,32.5A32.5,32.5,0,1,1,32.5,0,32.5,32.5,0,0,1,65,32.5"/></g><g id="_Group_2" data-name="&lt;Group&gt;"><path id="_Compound_Path_" data-name="&lt;Compound Path&gt;" class="cls-2" d="M12.06,21.44V43.56H52.94V21.44ZM32.5,40.84a8.34,8.34,0,1,1,8.34-8.34A8.34,8.34,0,0,1,32.5,40.84Z"/><path id="_Path_2" data-name="&lt;Path&gt;" class="cls-2" d="M30.34,32.62h-1a.1.1,0,0,1-.08,0l-.92-1,0,0h2v0q0-1,0-2a.88.88,0,0,0,0-.23.59.59,0,0,0-.28-.37,1,1,0,0,0-.73-.12.41.41,0,0,0-.17.08l0,0a5,5,0,0,1-.34-.73,1.54,1.54,0,0,1,0-.16.38.38,0,0,1,.12-.25.88.88,0,0,1,.24-.16,2.2,2.2,0,0,1,.62-.21,1.26,1.26,0,0,1,.8.11,1.23,1.23,0,0,1,.42.36,2.2,2.2,0,0,1,.41,1,3.7,3.7,0,0,1,.06.68c0,.68,0,1.36,0,2v.06H32a.1.1,0,0,1,.08,0l.94,1,0,0H31.42v0s0,0,0,0q0,1.43,0,2.86a.92.92,0,0,0,.22.6.81.81,0,0,0,.44.28,1.6,1.6,0,0,0,1-.07,2.56,2.56,0,0,0,.63-.38A4.2,4.2,0,0,0,34.6,35a2.4,2.4,0,0,0,.37-.85c0-.09,0-.19,0-.28a.38.38,0,0,0,0,0h-.19a1.65,1.65,0,0,1-.59-.06,1.07,1.07,0,0,1-.77-.77,2,2,0,0,1-.07-.82,1.3,1.3,0,0,1,.35-.74,1,1,0,0,1,.47-.27,2,2,0,0,1,.62-.07,1.55,1.55,0,0,1,1.09.47,2.47,2.47,0,0,1,.7,1.3,3.22,3.22,0,0,1,0,1,3.71,3.71,0,0,1-.52,1.46,5.63,5.63,0,0,1-.95,1.17,4,4,0,0,1-.94.68,3.67,3.67,0,0,1-1.08.36,4,4,0,0,1-.67.05,1.72,1.72,0,0,1-.68-.15,3,3,0,0,1-.9-.61,2.62,2.62,0,0,1-.37-.43,1.45,1.45,0,0,1-.18-.37.38.38,0,0,1,0-.12q0-1.1,0-2.2V32.62Z"/></g></svg>