<svg id="Layer_1" data-name="Layer 1" xmlns="http://www.w3.org/2000/svg" viewBox="0 0 65 65"><defs><style>.cls-1{fill:#fdd109;}.cls-2{fill:#1c97d4;fill-rule:evenodd;}</style></defs><title>icon_colored_circular_remain_anonymous</title><circle class="cls-1" cx="32.5" cy="32.5" r="32.5"/><path class="cls-2" d="M50.23,33.62c1.84-2.42,4.46-5.15,3.74-10-.14-.05-1.17,1.09-1.27,1.18a13.26,13.26,0,0,1-3,1.94c-2.81,1.29-5.22-.47-8.06-.44a15.13,15.13,0,0,0-6.76,1.87,5,5,0,0,1-4.76,0,15.12,15.12,0,0,0-6.76-1.87c-2.84,0-5.25,1.73-8.06.44a13.26,13.26,0,0,1-3-1.94c-.1-.09-1.13-1.24-1.27-1.18-.71,4.9,1.9,7.63,3.74,10L13.31,33c-.07.17,1.18,7,6.9,8.21,3.09.66,5.41-.41,9.27-1.71a8.75,8.75,0,0,1,6,0c3.86,1.31,6.18,2.37,9.27,1.71,5.72-1.22,7-8,6.9-8.21Zm-30.8-2c3.74-1.91,8.48.27,10,3.31C26,37.19,20.08,36,19.43,31.6Zm16.09,3.31c1.57-3,6.31-5.22,10-3.31C44.91,36,39,37.19,35.52,34.92Z"/></svg>