<svg id="Layer_1" data-name="Layer 1" xmlns="http://www.w3.org/2000/svg" viewBox="0 0 24 24"><defs><style>.cls-1{fill:none;}</style></defs><title>icon_like</title><rect class="cls-1" width="24" height="24"/><path d="M19.25,12.1a1.18,1.18,0,0,0-.31-2.21,3,3,0,0,0-1.68-.16,3.91,3.91,0,0,1-2.07-.28A7.84,7.84,0,0,1,16.1,8a3.09,3.09,0,0,0,.82-2.45c-.15-.94-.29-1.63-1-1.78a.85.85,0,0,0-1.14.71,3.28,3.28,0,0,1-.43,1.3A28.42,28.42,0,0,1,12,7.87a5.74,5.74,0,0,0-1.82,1.64c-.61.84-.87.9-1,.86v-.13a.78.78,0,0,0-.78-.78H4.51a.78.78,0,0,0-.78.78v7.81a.78.78,0,0,0,.78.78H8.36a.78.78,0,0,0,.78-.78v-.1c.89.11,2.64.33,4,.62,2,.42,5.23.61,5.46-.89,0,0,.18-.76-.32-1.07,0,0,1,.05,1.14-.78A1.39,1.39,0,0,0,19,14.54a1.22,1.22,0,0,0,1-1.11A1.26,1.26,0,0,0,19.25,12.1Z"/></svg>