<svg id="Layer_1" data-name="Layer 1" xmlns="http://www.w3.org/2000/svg" viewBox="0 0 65 65"><defs><style>.cls-1{fill:#fdd109;}.cls-2{fill:#1d96d4;}</style></defs><title>icon_colored_circular_tonic_discount</title><circle class="cls-1" cx="32.5" cy="32.5" r="32.5"/><g id="_Group_" data-name="&lt;Group&gt;"><path id="_Path_" data-name="&lt;Path&gt;" class="cls-2" d="M37.65,39.71h0a.89.89,0,0,0-.46.17,4.94,4.94,0,0,0-.74.63,3.27,3.27,0,0,0-.79,1,.44.44,0,0,0,.13.52.47.47,0,0,0,.33.16.5.5,0,0,0,.19,0,3.7,3.7,0,0,0,1.06-.82,3.07,3.07,0,0,0,.75-1,.43.43,0,0,0-.13-.5A.48.48,0,0,0,37.65,39.71Z"/><path id="_Path_2" data-name="&lt;Path&gt;" class="cls-2" d="M34.57,33.26a.49.49,0,0,0,.18,0,3.78,3.78,0,0,0,1.06-.82,3.11,3.11,0,0,0,.77-1,.43.43,0,0,0-.13-.5.46.46,0,0,0-.33-.16.86.86,0,0,0-.46.18,5.43,5.43,0,0,0-.74.64,5.55,5.55,0,0,0-.66.76.87.87,0,0,0-.18.46.46.46,0,0,0,.16.33A.47.47,0,0,0,34.57,33.26Z"/><path id="_Compound_Path_" data-name="&lt;Compound Path&gt;" class="cls-2" d="M51.93,34.13l-14-14a9.85,9.85,0,0,0-5.73-2.53l-10.94-.5a3.61,3.61,0,0,0-3.81,3.81l0,.55a10.26,10.26,0,0,1,5.64,1.75,3.37,3.37,0,1,1-1.09,2,8.34,8.34,0,0,0-4.44-1.43L18,31.88a9.86,9.86,0,0,0,2.53,5.73l14,14a5.57,5.57,0,0,0,3.42,1.14c1,0,1.38-.41,2.12-1.14L51.93,39.66A3.92,3.92,0,0,0,51.93,34.13ZM32.53,31.61a3.76,3.76,0,0,1,.92-1.37,5,5,0,0,1,1.36-1A2.15,2.15,0,0,1,36.2,29a2.63,2.63,0,0,1,1.29.76,3,3,0,0,1,.65.92,2.14,2.14,0,0,1,.16,1A2.67,2.67,0,0,1,38,32.81a4.79,4.79,0,0,1-.81,1A3.3,3.3,0,0,1,35.06,35h-.12a2.46,2.46,0,0,1-1.77-.8,2.67,2.67,0,0,1-.7-1.16A2.23,2.23,0,0,1,32.53,31.61Zm7.31,9.13a2.53,2.53,0,0,1-.34,1.06,4.84,4.84,0,0,1-.81,1,3.3,3.3,0,0,1-2.09,1.12h-.12a2.46,2.46,0,0,1-1.77-.8A2.69,2.69,0,0,1,34,42a2.28,2.28,0,0,1,.06-1.39A3.71,3.71,0,0,1,35,39.21,3.76,3.76,0,0,1,37.05,38a2.3,2.3,0,0,1,2,.8,2.88,2.88,0,0,1,.64.92A2.21,2.21,0,0,1,39.84,40.74Zm2.64-5a1.56,1.56,0,0,1-.75.3L30.55,38.67a1.42,1.42,0,0,1-.36.05.78.78,0,0,1-.57-.22.84.84,0,0,1-.23-.5.69.69,0,0,1,.2-.6,1,1,0,0,1,.52-.24l11.26-2.65a2.9,2.9,0,0,1,.53-.09.76.76,0,0,1,.57.24.8.8,0,0,1,.25.54A.75.75,0,0,1,42.48,35.75Z"/><path id="_Path_3" data-name="&lt;Path&gt;" class="cls-2" d="M12.78,27c1.31-2.22,2.37-3.47,4.25-3.72a5.55,5.55,0,0,1,.56,0,8.67,8.67,0,0,1,4.6,1.41,16.2,16.2,0,0,1,3.12,2.46.47.47,0,0,0,.36.16.48.48,0,0,0,.36-.19.72.72,0,0,0,0-.92,17,17,0,0,0-3.22-2.58A9.64,9.64,0,0,0,17.53,22c-.2,0-.4,0-.61,0-2.25.29-3.58,1.84-5,4.25"/></g></svg>