<?xml version="1.0" encoding="utf-8"?>
<!-- Generator: Adobe Illustrator 21.0.0, SVG Export Plug-In . SVG Version: 6.00 Build 0)  -->
<svg version="1.1" id="Layer_1" xmlns="http://www.w3.org/2000/svg" xmlns:xlink="http://www.w3.org/1999/xlink" x="0px" y="0px"
	 viewBox="0 0 24 24" enable-background="new 0 0 24 24" xml:space="preserve">
<g>
	<rect fill="none" width="24" height="24"/>
	<g>
		<path d="M16.3,17.9c-0.2,0-0.4,0-0.6,0c-0.3,0-0.7,0-1,0c-0.3,0-0.6,0-0.9,0c-0.3,0-0.5,0-0.7,0c-1.1,0-2.1-0.4-2.7-1.1
			c-0.7-0.7-1.1-1.7-1.1-2.7c0-1.2,0.5-2.2,1.6-3c0.6,0.9,1.1,1.9,1.7,3c0,0.1,0.1,0.1,0.2,0.1c0.1,0,0.2-0.1,0.3-0.1
			c0.1,0.2,0.2,0.4,0.4,0.6c0,0,0.1,0.1,0.1,0.1c0,0.1,0.1,0.1,0.1,0.1c0.1,0,0.1,0,0.2,0c0.1,0,0.2-0.1,0.2-0.1
			c0.2-0.1,0.5-0.3,0.7-0.4c0.1,0,0.1-0.1,0.1-0.1c0-0.1,0-0.1,0-0.2c-0.1-0.2-0.2-0.3-0.3-0.5c-0.1-0.1-0.1-0.2-0.2-0.3
			c0,0,0,0,0.1,0c0,0,0.1,0,0.2-0.1c0.1-0.1,0.1-0.2,0.1-0.3c-0.7-1.2-1.4-2.5-2.1-3.6c-0.8-1.3-1.5-2.6-2.3-4
			c0-0.1-0.1-0.1-0.2-0.1c-0.1,0-0.2,0-0.2,0.1C9.8,5,9.7,4.8,9.6,4.6c0-0.1-0.1-0.1-0.1-0.1c-0.1,0-0.1,0-0.2,0
			C9,4.7,8.8,4.8,8.5,5C8.4,5,8.3,5.1,8.1,5.2c0,0-0.1,0.1-0.1,0.1c0,0.1,0,0.1,0,0.2c0,0.1,0.1,0.1,0.1,0.2
			c0.1,0.1,0.1,0.2,0.2,0.4c-0.1,0-0.2,0.1-0.2,0.3c0,0,0,0.1,0,0.1C8.7,7.2,9.1,8,9.6,8.7c0.1,0.2,0.2,0.4,0.3,0.6
			c-1.5,1.1-2.4,2.6-2.5,4.3c-0.1,1.9,0.6,3.3,1.5,4.3H7.2C7.1,17.9,7,18,7,18.1v1.2c0,0.1,0.1,0.2,0.2,0.2h9.1
			c0.1,0,0.2-0.1,0.2-0.2v-1.2C16.5,18,16.5,17.9,16.3,17.9z"/>
		<path d="M17,14.7c-0.1-0.2-0.1-0.3-0.2-0.4c-0.1-0.1-0.1-0.2-0.1-0.3c0-0.1-0.1-0.1-0.1-0.1c-0.1,0-0.1,0-0.2,0
			c-0.6,0.3-1.2,0.7-1.7,1c-0.6,0.4-1.3,0.8-2,1.1c-0.1,0-0.1,0.2-0.1,0.2c0.1,0.2,0.1,0.3,0.2,0.4c0.1,0.1,0.1,0.2,0.1,0.3
			c0,0.1,0.1,0.1,0.1,0.1c0,0,0,0,0.1,0c0,0,0.1,0,0.1,0c0.6-0.3,1.2-0.7,1.7-1c0.6-0.4,1.3-0.8,2-1.1C17,14.9,17,14.8,17,14.7z"/>
	</g>
	<rect fill="none" width="24" height="24"/>
</g>
</svg>
