<svg id="Layer_1" data-name="Layer 1" xmlns="http://www.w3.org/2000/svg" viewBox="0 0 65 65"><defs><style>.cls-1{fill:#fdd109;}.cls-2{fill:#1c97d4;}</style></defs><title>icon_colored_circular_quick_response</title><circle class="cls-1" cx="32.5" cy="32.5" r="32.5"/><path class="cls-2" d="M49.83,26.24a1.95,1.95,0,0,0-3.65,1.38A14.63,14.63,0,0,1,26.74,46.24a14.82,14.82,0,0,1-2.91-1.66A14.63,14.63,0,0,1,37.24,19l-.72,1.22a.92.92,0,0,0,1,1.46l4.88-.79a1.31,1.31,0,0,0,1-1.77l-1.66-4.66A.91.91,0,0,0,40,14.25l-.77,1.3A18.53,18.53,0,0,0,21.52,47.73a18.72,18.72,0,0,0,3.68,2.1A18.53,18.53,0,0,0,49.83,26.24Z"/><path class="cls-2" d="M31.86,20.72a1.68,1.68,0,0,0-1.67,1.67v12l11,5.67a1.67,1.67,0,0,0,1.54-3l-9.15-4.73v-10A1.68,1.68,0,0,0,31.86,20.72Z"/></svg>