<svg id="Layer_1" data-name="Layer 1" xmlns="http://www.w3.org/2000/svg" viewBox="0 0 65 65"><defs><style>.cls-1{fill:#fdd109;}.cls-2{fill:#1c97d4;}.cls-3{fill:none;}</style></defs><title>icon_colored_circular_appointment</title><circle id="_Path_" data-name="&lt;Path&gt;" class="cls-1" cx="32.46" cy="32.62" r="32.46"/><g id="_Group_" data-name="&lt;Group&gt;"><g id="_Group_2" data-name="&lt;Group&gt;"><g id="_Group_3" data-name="&lt;Group&gt;"><path id="_Compound_Path_" data-name="&lt;Compound Path&gt;" class="cls-2" d="M15.73,44.8V20.61a1,1,0,0,0,.07-.18,3.8,3.8,0,0,1,3.38-3.16c.88-.08,1.77,0,2.65-.06.3,0,.36.1.36.38,0,.82,0,1.64,0,2.46a2.54,2.54,0,0,0,2,2.27A2.59,2.59,0,0,0,27,21.15a2.8,2.8,0,0,0,.38-1.47c0-.81,0-1.61,0-2.43H37.67c0,.08,0,.13,0,.18,0,.85,0,1.71,0,2.56a2.56,2.56,0,0,0,5.12,0c0-.82,0-1.64,0-2.46,0-.23,0-.33.31-.33.74,0,1.49,0,2.23,0A3.86,3.86,0,0,1,49.29,21q0,11.69,0,23.37a3.82,3.82,0,0,1-3.81,3.8q-13,0-25.93,0A3.65,3.65,0,0,1,16.13,46,8.6,8.6,0,0,1,15.73,44.8Zm2.59-18.54c0,.14,0,.25,0,.36q0,8.74,0,17.47a1.34,1.34,0,0,0,1.52,1.54H45.2a1.34,1.34,0,0,0,1.52-1.54q0-8.74,0-17.47c0-.12,0-.23,0-.36Z"/><path id="_Path_2" data-name="&lt;Path&gt;" class="cls-2" d="M25,14.64a1.53,1.53,0,0,1,1,1.69c0,1.1,0,2.2,0,3.31a1.33,1.33,0,0,1-1,1.42,1.27,1.27,0,0,1-1.56-1.21c0-1.32,0-2.64,0-4a1.33,1.33,0,0,1,1-1.25Z"/><path id="_Path_3" data-name="&lt;Path&gt;" class="cls-2" d="M40.52,14.64a1.48,1.48,0,0,1,1,1.64c0,1.16,0,2.31,0,3.47a1.25,1.25,0,0,1-.69,1.18,1.23,1.23,0,0,1-1.3-.06A1.27,1.27,0,0,1,39,19.74c0-1.24,0-2.49,0-3.73a1.4,1.4,0,0,1,1-1.36Z"/></g><path id="_Compound_Path_2" data-name="&lt;Compound Path&gt;" class="cls-2" d="M25.61,35.21h-3.9a1,1,0,0,1-1-1v-3.9a1,1,0,0,1,1-1h3.9a1,1,0,0,1,1,1v3.9A1,1,0,0,1,25.61,35.21Zm9.86-1v-3.9a1,1,0,0,0-1-1h-3.9a1,1,0,0,0-1,1v3.9a1,1,0,0,0,1,1h3.9A1,1,0,0,0,35.47,34.21Zm8.86,0v-3.9a1,1,0,0,0-1-1h-3.9a1,1,0,0,0-1,1v3.9a1,1,0,0,0,1,1h3.9A1,1,0,0,0,44.32,34.21ZM26.61,42.13v-3.9a1,1,0,0,0-1-1h-3.9a1,1,0,0,0-1,1v3.9a1,1,0,0,0,1,1h3.9A1,1,0,0,0,26.61,42.13Zm8.86,0v-3.9a1,1,0,0,0-1-1h-3.9a1,1,0,0,0-1,1v3.9a1,1,0,0,0,1,1h3.9A1,1,0,0,0,35.47,42.13Zm8.86,0v-3.9a1,1,0,0,0-1-1h-3.9a1,1,0,0,0-1,1v3.9a1,1,0,0,0,1,1h3.9A1,1,0,0,0,44.32,42.13Z"/></g></g><rect class="cls-3" y="0.16" width="64.92" height="64.92"/></svg>