<svg id="Layer_1" data-name="Layer 1" xmlns="http://www.w3.org/2000/svg" viewBox="0 0 65 65"><defs><style>.cls-1{fill:#fdd109;}.cls-2{fill:#1d96d4;}</style></defs><title>icon_colored_circular_meet_tonic_doctor</title><circle class="cls-1" cx="32.5" cy="32.5" r="32.5"/><path id="_Path_" data-name="&lt;Path&gt;" class="cls-2" d="M49.8,36.69A6.12,6.12,0,0,0,44,33.58a6.12,6.12,0,0,0-5.8,3.12,6.91,6.91,0,0,0-.82,3v5.6a3.26,3.26,0,0,1-3.56,3.23A3.15,3.15,0,0,1,30.75,47a4.13,4.13,0,0,1-.5-1.72v-6a2.75,2.75,0,0,0,.94-1.2,11.58,11.58,0,0,0,1.45-.29,8.21,8.21,0,0,0,6-5.51l2.61-10.72c.57-2.05-.34-3.92-2.56-5.24l-.05,0a3.45,3.45,0,1,0-1,2.58,1.8,1.8,0,0,1,.83,2.1L35.88,31.62a5.8,5.8,0,0,1-5,3.91,2.74,2.74,0,0,0-4.48,0,8.48,8.48,0,0,1-1-.2,5.45,5.45,0,0,1-4-3.67L18.82,21V21c-.15-.52-.19-1.29.91-2.11a3.45,3.45,0,1,0-.94-2.59l-.18.1C16.38,17.7,15.47,19.56,16,21.6l2.59,10.65,0,.1a8.2,8.2,0,0,0,6,5.5,11.59,11.59,0,0,0,1.46.29,2.75,2.75,0,0,0,1.1,1.31v5.86a6.84,6.84,0,0,0,.82,3,6.12,6.12,0,0,0,5.8,3.12,6.12,6.12,0,0,0,5.8-3.12,6.87,6.87,0,0,0,.82-3V39.7A3.22,3.22,0,0,1,44,36.47,3.15,3.15,0,0,1,47.06,38a4.19,4.19,0,0,1,.5,1.71v2.8a1.53,1.53,0,0,0,3.06,0V39.69a6.84,6.84,0,0,0-.82-3"/><path id="_Compound_Path_" data-name="&lt;Compound Path&gt;" class="cls-2" d="M45.71,43.88a3,3,0,1,0,3,3,3,3,0,0,0-3-3m0,8.09a5.11,5.11,0,1,1,5.11-5.11A5.11,5.11,0,0,1,45.71,52"/></svg>