<svg id="Layer_1" data-name="Layer 1" xmlns="http://www.w3.org/2000/svg" viewBox="0 0 65 65"><defs><style>.cls-1{fill:#fdd109;}.cls-2{fill:#1c97d4;}</style></defs><title>icon_colored_circular_call_a_doctor</title><circle id="_Path_" data-name="&lt;Path&gt;" class="cls-1" cx="32.5" cy="32.5" r="32.5"/><g id="_Group_" data-name="&lt;Group&gt;"><g id="_Group_2" data-name="&lt;Group&gt;"><path id="_Compound_Path_" data-name="&lt;Compound Path&gt;" class="cls-2" d="M42.87,49.67V15.56C42.87,13.22,40,13,40,13H25s-2.83.22-2.83,2.56V49.67A2.34,2.34,0,0,0,24.76,52H40.24A2.34,2.34,0,0,0,42.87,49.67Zm-13.56-34h6.38v.47H29.31ZM32.5,51.49a1.84,1.84,0,1,1,1.84-1.84A1.84,1.84,0,0,1,32.5,51.49Zm9.2-25.42V47H23.3V18.3H41.7Z"/></g><path id="_Path_2" data-name="&lt;Path&gt;" class="cls-2" d="M25.35,28.6a1.7,1.7,0,0,1,.58-1.41c.6-.56,1.19-1.14,1.74-1.75a.74.74,0,0,1,1.32.18c.55,1,1.06,2,1.58,3a.83.83,0,0,1-.17,1,4.41,4.41,0,0,1-.54.54.59.59,0,0,0-.17.78,7.74,7.74,0,0,0,.67,1.16,10.87,10.87,0,0,0,2.86,2.67l.25.15c.64.32.78.29,1.27-.21l.33-.33a1,1,0,0,1,1.42-.19L39,35.63a3.05,3.05,0,0,1,.3.19A.69.69,0,0,1,39.4,37c-.65.68-1.32,1.34-2,2a1.81,1.81,0,0,1-1.64.39A8.77,8.77,0,0,1,32.29,38,16.67,16.67,0,0,1,26,31.12,7.51,7.51,0,0,1,25.35,28.6Z"/></g></svg>