<svg id="Layer_1" data-name="Layer 1" xmlns="http://www.w3.org/2000/svg" viewBox="0 0 24 24"><defs><style>.cls-1{fill:none;}</style></defs><title>icon_date</title><path id="calendar-5-icon" d="M9.73,13.55H7.44V11.26H9.73Zm3.46-2.29H10.9v2.29h2.29Zm3.46,0H14.35v2.29h2.29ZM9.73,14.6H7.44v2.29H9.73Zm3.46,0H10.9v2.29h2.29Zm3.46,0H14.35v2.29h2.29Zm.85-8a.71.71,0,1,1-1.41,0V4.87a.71.71,0,0,1,1.41,0ZM8,4.87a.71.71,0,1,0-1.41,0V6.64A.71.71,0,1,0,8,6.64Zm10.39,1v.72a1.56,1.56,0,1,1-3.12,0V5.9H8.81v.72a1.56,1.56,0,1,1-3.12,0V5.9H4V19.84H20V5.9H18.34Zm.1,12.39H5.55V9.65H18.45Z"/><rect class="cls-1" width="24" height="24"/></svg>