<?xml version="1.0" encoding="utf-8"?>
<!-- Generator: Adobe Illustrator 21.0.0, SVG Export Plug-In . SVG Version: 6.00 Build 0)  -->
<svg version="1.1" id="Layer_1" xmlns="http://www.w3.org/2000/svg" xmlns:xlink="http://www.w3.org/1999/xlink" x="0px" y="0px"
	 viewBox="0 0 24 24" enable-background="new 0 0 24 24" xml:space="preserve">
<g>
	<g>
		<path d="M19.6,11l-6.5-6.5c-0.6-0.6-1.6-0.6-2.2,0L4.4,11c-1,1-0.3,2.7,1.1,2.7h1v4.7c0,0.9,0.7,1.7,1.7,1.7h7.8
			c0.9,0,1.7-0.7,1.7-1.7v-4.7h1C19.9,13.7,20.6,12,19.6,11z M14.8,14.5l-2,0v2h-1.6v-2h-2v-1.6h2v-2h1.6v2l2,0V14.5z"/>
	</g>
	<rect fill="none" width="24" height="24"/>
</g>
</svg>
