<svg id="Layer_1" data-name="Layer 1" xmlns="http://www.w3.org/2000/svg" viewBox="0 0 24 24"><defs><style>.cls-1{fill:none;}</style></defs><title>icon_key</title><path d="M10.39,15.08c.6.5,1,1,1.5,1.4a.75.75,0,0,1,0,1.3l-2.1,2.1a.79.79,0,0,1-1.3,0,18.48,18.48,0,0,0-1.4-1.4c-.3.2-.4.4-.7.5a1.24,1.24,0,0,1-1.7-.2,1.36,1.36,0,0,1-.1-1.7,2.65,2.65,0,0,0,.5-.6l5.7-5.7a.91.91,0,0,0,.3-1,4.47,4.47,0,0,1,1.8-5.3,4.41,4.41,0,1,1,.8,7.9,1,1,0,0,0-1,.2A13.38,13.38,0,0,1,10.39,15.08Zm5-8.4a1.67,1.67,0,0,0-1.7,1.6,1.77,1.77,0,0,0,1.7,1.8,1.75,1.75,0,0,0,1.7-1.7A1.75,1.75,0,0,0,15.39,6.68Z"/><rect class="cls-1" width="24" height="24"/></svg>