<svg id="Layer_1" data-name="Layer 1" xmlns="http://www.w3.org/2000/svg" viewBox="0 0 24 24"><defs><style>.cls-1{fill:none;}</style></defs><title>icon_web</title><rect class="cls-1" width="24" height="24" transform="translate(0 24) rotate(-90)"/><path d="M12,4.77A7.23,7.23,0,1,0,19.23,12,7.23,7.23,0,0,0,12,4.77Zm.6,9.68V12.6h1.8a11.17,11.17,0,0,1-.27,2A14.62,14.62,0,0,0,12.6,14.45Zm1.18,1.3a7.2,7.2,0,0,1-1.18,2.08V15.65C13,15.67,13.4,15.7,13.78,15.75ZM12.6,11.4V9.58a14.57,14.57,0,0,0,1.54-.14,11.14,11.14,0,0,1,.27,2Zm0-3V6.17a7.21,7.21,0,0,1,1.19,2.11C13.4,8.33,13,8.36,12.6,8.37Zm1.63-2a6,6,0,0,1,2,1.29A10.5,10.5,0,0,1,15,8.06,9.24,9.24,0,0,0,14.23,6.41ZM9.87,14.58a11.11,11.11,0,0,1-.27-2h1.8v1.84A14.62,14.62,0,0,0,9.87,14.58Zm1.53,1.07v2.18a7.2,7.2,0,0,1-1.18-2.08C10.6,15.7,11,15.67,11.4,15.65ZM9.59,11.4a11.09,11.09,0,0,1,.27-2,14.57,14.57,0,0,0,1.54.14V11.4Zm.62-3.12A7.22,7.22,0,0,1,11.4,6.17V8.37C11,8.36,10.6,8.33,10.21,8.28ZM9,8.06A10.46,10.46,0,0,1,7.78,7.7a6.05,6.05,0,0,1,2-1.29A9.32,9.32,0,0,0,9,8.06ZM8.67,9.22a12.29,12.29,0,0,0-.3,2.18H6A6,6,0,0,1,7,8.67,11.49,11.49,0,0,0,8.67,9.22Zm0,5.58A11.57,11.57,0,0,0,7,15.35,6,6,0,0,1,6,12.6H8.37A12.26,12.26,0,0,0,8.68,14.8ZM9,16a9.26,9.26,0,0,0,.76,1.63,6,6,0,0,1-2-1.27A10.61,10.61,0,0,1,9,16Zm6,0a10.64,10.64,0,0,1,1.2.36,6.06,6.06,0,0,1-2,1.28A9.33,9.33,0,0,0,15,16Zm.33-1.16a12.26,12.26,0,0,0,.3-2.2H18a6,6,0,0,1-1,2.74A11.59,11.59,0,0,0,15.32,14.8Zm.3-3.41a12.34,12.34,0,0,0-.3-2.18A11.5,11.5,0,0,0,17,8.67a6,6,0,0,1,1,2.72Z"/></svg>