<svg id="Layer_1" data-name="Layer 1" xmlns="http://www.w3.org/2000/svg" viewBox="0 0 24 24"><defs><style>.cls-1{fill:none;}</style></defs><title>icon_question</title><path d="M10.26,15.35a7.05,7.05,0,0,1,.4-2.62,5.36,5.36,0,0,1,1.46-1.92,7.49,7.49,0,0,0,1.41-1.54A2.42,2.42,0,0,0,13.88,8q0-2-1.83-2a1.85,1.85,0,0,0-1.39.53,2.1,2.1,0,0,0-.54,1.47H6.72A4.52,4.52,0,0,1,8.17,4.55a5.64,5.64,0,0,1,3.88-1.27,5.66,5.66,0,0,1,3.86,1.2,4.28,4.28,0,0,1,1.37,3.4,4.14,4.14,0,0,1-.45,1.88,7.75,7.75,0,0,1-1.56,2l-.95.9a3.22,3.22,0,0,0-1,2l0,.72Zm-.34,3.59a1.71,1.71,0,0,1,.53-1.29,1.9,1.9,0,0,1,1.37-.51,1.9,1.9,0,0,1,1.37.51,1.82,1.82,0,0,1,0,2.56,1.9,1.9,0,0,1-1.38.5,1.9,1.9,0,0,1-1.38-.5A1.69,1.69,0,0,1,9.92,18.94Z"/><rect class="cls-1" width="24" height="24"/></svg>