<?xml version="1.0" encoding="utf-8"?>
<!-- Generator: Adobe Illustrator 21.0.0, SVG Export Plug-In . SVG Version: 6.00 Build 0)  -->
<svg version="1.1" id="Layer_1" xmlns="http://www.w3.org/2000/svg" xmlns:xlink="http://www.w3.org/1999/xlink" x="0px" y="0px"
	 viewBox="0 0 24 24" enable-background="new 0 0 24 24" xml:space="preserve">
<g id="XMLID_376_">
	<path id="XMLID_409_" d="M21.2,9.9c0,0.2-0.1,0.5-0.1,0.7c-0.2,0.9-0.5,1.8-1.1,2.5c-0.6,0.8-1.2,1.6-1.9,2.3
		c-1.1,1.1-2.4,2.1-3.7,3.1c-0.6,0.5-1.3,0.9-1.9,1.3c-0.3,0.2-0.6,0.2-0.8,0c-0.7-0.5-1.5-1-2.2-1.5c-0.6-0.4-1.1-0.8-1.6-1.3
		c-0.1-0.1-0.1,0-0.2,0c-0.6,0.6-1.2,1.1-1.7,1.7c-0.3,0.3-0.6,0.6-1,0.9c-0.2,0.2-0.6,0.2-0.9,0C3.8,19.4,3.8,19,4,18.8
		c0.4-0.4,0.8-0.7,1.1-1.1c0.5-0.5,1-0.9,1.5-1.4c0,0,0.1-0.1,0.1-0.1c-0.1-0.1-0.3-0.3-0.4-0.4c-0.7-0.7-1.4-1.4-1.9-2.2
		c-0.5-0.6-0.9-1.3-1.2-2.1c-0.5-1.3-0.5-2.6-0.1-3.9c0.3-0.7,0.7-1.4,1.2-1.9C4.8,5.1,5.4,4.7,6,4.4C6.9,4.1,7.8,3.9,8.8,4
		c0.9,0.1,1.8,0.4,2.5,0.9c0.2,0.1,0.4,0.3,0.6,0.4c0.1,0.1,0.1,0.1,0.2,0c0.7-0.6,1.4-1,2.3-1.2c1.1-0.3,2.1-0.2,3.1,0.1
		c1,0.3,1.8,0.9,2.4,1.7c0.7,0.9,1.1,1.8,1.2,2.9c0,0,0,0.1,0,0.1C21.2,9.3,21.2,9.6,21.2,9.9z M8.7,16.2c0.2,0.1,0.3,0.3,0.5,0.4
		c0.9,0.7,1.8,1.3,2.7,2c0,0,0.1,0,0.2,0c0.7-0.5,1.3-0.9,2-1.4c0.9-0.7,1.7-1.4,2.5-2.1c0.8-0.7,1.5-1.4,2.1-2.2
		c0.5-0.6,0.8-1.3,1-2.1c0.3-1,0.3-2-0.2-2.9c-0.6-1.3-1.6-2.1-3-2.4c-0.9-0.2-1.7-0.1-2.5,0.3c-0.6,0.3-1.1,0.6-1.6,1.1
		c-0.3,0.3-0.7,0.3-1,0c-0.2-0.2-0.3-0.3-0.5-0.5c-0.7-0.6-1.4-0.9-2.3-1c-1-0.1-2,0.1-2.8,0.7C5.1,6.6,4.6,7.3,4.3,8.2
		c-0.4,1.2-0.2,2.4,0.4,3.5c0.3,0.6,0.7,1.2,1.2,1.7C6.4,14,7,14.6,7.6,15.2c0.1,0.1,0.1,0.1,0.2,0c0.4-0.4,0.7-0.7,1.1-1
		c0.1-0.1,0.1-0.1,0-0.2c-0.1-0.1-0.2-0.3-0.2-0.5c-0.3-0.7-0.4-1.4-0.3-2.2c0.2-1,0.7-1.8,1.6-2.4c1-0.7,2.2-0.8,3.4-0.4
		c1.2,0.4,1.9,1.3,2.3,2.5c0.2,0.7,0.2,1.4-0.1,2.1c-0.3,0.9-0.9,1.6-1.7,2.1c-0.7,0.4-1.4,0.5-2.2,0.5c-0.6-0.1-1.2-0.3-1.7-0.6
		c-0.1,0-0.1,0-0.2,0c-0.1,0.1-0.3,0.3-0.4,0.4C9.1,15.7,8.9,15.9,8.7,16.2z M12,14.4c1.3,0,2.4-1,2.4-2.4c0-1.3-1.1-2.4-2.4-2.4
		c-1.3,0-2.4,1.1-2.4,2.4C9.6,13.3,10.6,14.4,12,14.4z"/>
</g>
</svg>
