<svg id="Layer_1" data-name="Layer 1" xmlns="http://www.w3.org/2000/svg" viewBox="0 0 24 24"><defs><style>.cls-1{fill:none;}</style></defs><title>icon_filter</title><path d="M8.43,5.31a2.16,2.16,0,1,0,0,1.29H20V5.31Z"/><path d="M15.87,14.16a2.15,2.15,0,0,0,2-1.51h2V11.35h-2a2.14,2.14,0,0,0-4.09,0H4v1.29h9.81A2.15,2.15,0,0,0,15.87,14.16Z"/><path d="M9.84,15.88a2.15,2.15,0,0,0-2,1.51H4v1.29H7.79a2.14,2.14,0,0,0,4.09,0H20V17.39h-8.1A2.15,2.15,0,0,0,9.84,15.88Z"/><rect class="cls-1" width="24" height="24"/></svg>