<?xml version="1.0" encoding="utf-8"?>
<!-- Generator: Adobe Illustrator 21.0.0, SVG Export Plug-In . SVG Version: 6.00 Build 0)  -->
<svg version="1.1" id="Layer_1" xmlns="http://www.w3.org/2000/svg" xmlns:xlink="http://www.w3.org/1999/xlink" x="0px" y="0px"
	 viewBox="0 0 24 24" enable-background="new 0 0 24 24" xml:space="preserve">
<g>
	<g>
		<path d="M17.7,8h-0.3c-0.6,0-1.1,0.5-1.1,1.1v2.4l-8.6,0V9.1C7.7,8.5,7.2,8,6.6,8H6.3C5.7,8,5.2,8.5,5.2,9.1v5.8
			c0,0.6,0.5,1.1,1.1,1.1h0.3c0.6,0,1.1-0.5,1.1-1.1v-2.4l8.6,0v2.4c0,0.6,0.5,1.1,1.1,1.1h0.3c0.6,0,1.1-0.5,1.1-1.1V9.1
			C18.8,8.5,18.3,8,17.7,8z"/>
		<path d="M20.1,9.5h-0.2c-0.4,0-0.7,0.3-0.7,0.7v3.7c0,0.4,0.3,0.7,0.7,0.7h0.2c0.4,0,0.7-0.3,0.7-0.7v-3.7
			C20.8,9.8,20.5,9.5,20.1,9.5z"/>
		<path d="M4.1,9.5H3.9c-0.4,0-0.7,0.3-0.7,0.7v3.7c0,0.4,0.3,0.7,0.7,0.7h0.2c0.4,0,0.7-0.3,0.7-0.7v-3.7C4.8,9.8,4.5,9.5,4.1,9.5z
			"/>
	</g>
	<rect fill="none" width="24" height="24"/>
</g>
</svg>
