<svg xmlns="http://www.w3.org/2000/svg" viewBox="0 0 55.38 55"><defs><style>.cls-1{isolation:isolate;}.cls-2{fill:#8c9399;}.cls-3{fill:#00b550;}.cls-4{fill:#fffcee;}.cls-11,.cls-5,.cls-6{fill:#f6ccb8;}.cls-11,.cls-6{mix-blend-mode:multiply;}.cls-7{fill:#fff;}.cls-8{fill:#ebebeb;}.cls-9{fill:#d9d9d9;}.cls-10{fill:#65c6bb;}.cls-11{opacity:0.8;}.cls-12{fill:#4f3c30;}.cls-13{fill:#42404d;}</style></defs><title>image_illustration_doctor_appointment</title><g class="cls-1"><g id="Layer_1" data-name="Layer 1"><path class="cls-2" d="M49,16.37A6.37,6.37,0,0,1,44.28,5.72,27.37,27.37,0,0,0,27.5,0h0A27.5,27.5,0,0,0,0,27.5H0A27.44,27.44,0,0,0,10.34,49l.58-4.05a5.4,5.4,0,0,1,4.17-4.51l5.67-1.26,2.81-1.33h.52V36.62h0V35.49c-2-1.42-3.87-3.76-3.87-6.19a1.48,1.48,0,0,1-1.48-1.49V26.27a1.48,1.48,0,0,1,.52-1.13l.09-.06c-1.06-3.35-2.66-11,4.26-12.59a6.83,6.83,0,0,1,7.69-.43c3.13,1.84,3.24,2.23,5,2a.47.47,0,0,1,.52.41,5.75,5.75,0,0,1-.68,3.7,14.55,14.55,0,0,1-.3,6.84,1.48,1.48,0,0,1,.69,1.25v1.55A1.49,1.49,0,0,1,35.1,29.3a5.14,5.14,0,0,1-.12,1,6.5,6.5,0,0,1-.65,1.79v0q-.18.32-.38.63a9.41,9.41,0,0,1-.72.93L33,34h0a10.75,10.75,0,0,1-1.13,1l-.21.16-.39.29h0v2.34h.52l2.81,1.33,5.67,1.27a5.4,5.4,0,0,1,4.17,4.51L45,48.75A27.44,27.44,0,0,0,55,27.5h0a27.39,27.39,0,0,0-2.76-12A6.34,6.34,0,0,1,49,16.37Z"/><path class="cls-3" d="M49,16.37A6.37,6.37,0,1,0,42.63,10,6.34,6.34,0,0,0,49,16.37Zm-1.07-7.5L49,6.7l1.07,2.17,2.39.35-1.73,1.69.41,2.39L51,13.23l-2-1.06L46.86,13.3l.41-2.39L45.53,9.22l2.22-.32Z"/><polygon class="cls-4" points="47.27 10.91 46.86 13.3 49 12.17 51.01 13.23 51.14 13.3 50.73 10.91 52.47 9.22 50.07 8.87 49 6.7 47.93 8.87 47.75 8.9 45.53 9.22 47.27 10.91"/><path class="cls-5" d="M23.73,38.59l.51,2.53.16.78a4.58,4.58,0,0,0,3.25,1.23A4.37,4.37,0,0,0,31,41.81l.14-.69.51-2.52-.36-.17V35.49h0V38.2l-1.65-.37L24.1,36.62v1.81Z"/><polygon class="cls-2" points="24.1 35.49 24.1 36.62 24.1 36.62 24.1 35.49 24.1 35.49"/><polygon class="cls-6" points="24.1 35.49 24.1 36.62 24.1 36.62 24.1 35.49 24.1 35.49"/><path class="cls-5" d="M31.23,38.2V35.49l-.14.09-.47.3-.14.07a8.33,8.33,0,0,1-1.1.53l-.47.15-.14,0-.46.1-.12,0-.32,0-.22,0h0a6.78,6.78,0,0,1-3.56-1.36v1.13l5.48,1.22Z"/><path class="cls-6" d="M31.23,38.2V35.49l-.14.09-.47.3-.14.07a8.33,8.33,0,0,1-1.1.53l-.47.15-.14,0-.46.1-.12,0-.32,0-.22,0h0a6.78,6.78,0,0,1-3.56-1.36v1.13l5.48,1.22Z"/><path class="cls-7" d="M31,41.81a4.37,4.37,0,0,1-3.31,1.32,4.58,4.58,0,0,1-3.25-1.23l1.72,8.57L27,55h.48l.81,0,.91-4.51Z"/><path class="cls-8" d="M40.23,40.42l-5.67-1.27.46.22-.08,2.4,0,1-1.7,1.4L34.53,46l-5.08,8.93a27.46,27.46,0,0,0,4.7-.74v-.77h2.67v0A27.46,27.46,0,0,0,45,48.75l-.55-3.82A5.4,5.4,0,0,0,40.23,40.42Zm-2,11.4h-.83v.83h-1v-.83H35.5v-1h.83V50h1v.83h.83Z"/><path class="cls-8" d="M22.12,44.19l-1.7-1.4,0-1.35-.07-2.05.46-.22-5.67,1.26a5.4,5.4,0,0,0-4.17,4.51L10.34,49a27.41,27.41,0,0,0,15.55,6L20.8,46Z"/><path class="cls-9" d="M24.39,41.9l-.16-.78-.51-2.53.37-.16v-.6h-.52l-2.81,1.33-.46.22.07,2.05,0,1.35,1.7,1.4L20.8,46l5.09,9L27,55h0l-.91-4.52Z"/><path class="cls-9" d="M33.2,44.19l1.7-1.4,0-1,.08-2.4-.46-.22-2.81-1.33h-.52v.6l.36.17-.51,2.52-.14.69-1.74,8.66L28.31,55h0l1.13-.06L34.53,46Z"/><polygon class="cls-10" points="37.37 49.96 36.67 49.96 36.33 49.96 36.33 50.79 35.5 50.79 35.5 51.83 36.33 51.83 36.33 52.66 36.8 52.66 37.37 52.66 37.37 51.83 38.2 51.83 38.2 50.79 37.37 50.79 37.37 49.96"/><path class="cls-10" d="M34.15,54.19q1.3-.32,2.55-.77H34.15Z"/><path class="cls-5" d="M23.22,23.79c-2.76,0-2.76,1.37-2.76,1.82,0,1.42.33,2.73,2.76,2.73,2.13,0,2.79-1.12,3.14-2.79a1.11,1.11,0,0,0-.19-1C25.87,24.22,25.12,23.79,23.22,23.79Z"/><path class="cls-5" d="M23.22,23.2c1.64,0,2.75.31,3.32.92a2.39,2.39,0,0,1,1.12-.31V20.65a15.64,15.64,0,0,1-5-2.3c-1.48,1-2.16,3.36-2.47,5.29H21A4.71,4.71,0,0,1,23.22,23.2Z"/><path class="cls-5" d="M27.66,36.85V30.46H25.88a31,31,0,0,1,1.78-5.65A1.29,1.29,0,0,0,27,25a2,2,0,0,1,0,.7c-.33,1.61-1,3.26-3.72,3.26s-3.24-1.5-3.33-2.84a.13.13,0,0,1-.21-.05c-.09-.25-.21-.58-.33-1l-.09.06a1.48,1.48,0,0,0-.52,1.13v1.55a1.48,1.48,0,0,0,1.48,1.49c0,2.43,1.82,4.77,3.87,6.19h0A6.78,6.78,0,0,0,27.66,36.85Z"/><circle class="cls-5" cx="27.66" cy="36.85" transform="translate(-10.53 62.64) rotate(-87.14)"/><circle class="cls-6" cx="27.66" cy="36.85" transform="translate(-10.53 62.64) rotate(-87.14)"/><circle class="cls-11" cx="27.66" cy="36.85" transform="translate(-10.53 62.64) rotate(-87.14)"/><path class="cls-5" d="M27.66,36.85l.22,0-.23,0Z"/><path class="cls-6" d="M27.66,36.85l.22,0-.23,0Z"/><path class="cls-11" d="M27.66,36.85l.22,0-.23,0Z"/><path class="cls-5" d="M32.12,28.34c2.42,0,2.76-1.31,2.76-2.73,0-.45,0-1.82-2.76-1.82-1.9,0-2.65.43-2.95.79a1.11,1.11,0,0,0-.19,1C29.32,27.23,30,28.34,32.12,28.34Z"/><path class="cls-11" d="M32.12,28.34c2.42,0,2.76-1.31,2.76-2.73,0-.45,0-1.82-2.76-1.82-1.9,0-2.65.43-2.95.79a1.11,1.11,0,0,0-.19,1C29.32,27.23,30,28.34,32.12,28.34Z"/><path class="cls-5" d="M35.43,25.29c0-.11,0-.22,0-.35h0A2.39,2.39,0,0,1,35.43,25.29Z"/><path class="cls-11" d="M35.43,25.29c0-.11,0-.22,0-.35h0A2.39,2.39,0,0,1,35.43,25.29Z"/><path class="cls-5" d="M35.46,25.81c0,1.4-.48,3.13-3.34,3.13-2.68,0-3.38-1.65-3.72-3.26a2,2,0,0,1,0-.69,1.27,1.27,0,0,0-.71-.16h0a31,31,0,0,0-1.78,5.65h1.78v6.39h0l.23,0,.32,0,.12,0,.46-.1.14,0,.47-.15a8.33,8.33,0,0,0,1.1-.53l.14-.07.47-.3.14-.09h0l.39-.29.21-.16A10.75,10.75,0,0,0,33,34h0l.25-.28a9.41,9.41,0,0,0,.72-.93q.21-.31.38-.63v0A6.5,6.5,0,0,0,35,30.33a5.14,5.14,0,0,0,.12-1,1.49,1.49,0,0,0,1.48-1.48V26.27A1.48,1.48,0,0,0,35.89,25c-.07.27-.14.52-.2.73A.13.13,0,0,1,35.46,25.81Z"/><path class="cls-11" d="M35.46,25.81c0,1.4-.48,3.13-3.34,3.13-2.68,0-3.38-1.65-3.72-3.26a2,2,0,0,1,0-.69,1.27,1.27,0,0,0-.71-.16h0a31,31,0,0,0-1.78,5.65h1.78v6.39h0l.23,0,.32,0,.12,0,.46-.1.14,0,.47-.15a8.33,8.33,0,0,0,1.1-.53l.14-.07.47-.3.14-.09h0l.39-.29.21-.16A10.75,10.75,0,0,0,33,34h0l.25-.28a9.41,9.41,0,0,0,.72-.93q.21-.31.38-.63v0A6.5,6.5,0,0,0,35,30.33a5.14,5.14,0,0,0,.12-1,1.49,1.49,0,0,0,1.48-1.48V26.27A1.48,1.48,0,0,0,35.89,25c-.07.27-.14.52-.2.73A.13.13,0,0,1,35.46,25.81Z"/><path class="cls-5" d="M27.66,23.81a2.39,2.39,0,0,1,1.13.32c.57-.61,1.68-.93,3.32-.93a4.71,4.71,0,0,1,2.19.43h1.08a12,12,0,0,0-.72-3.84,8.65,8.65,0,0,1-7,.86v3.16Z"/><path class="cls-11" d="M27.66,23.81a2.39,2.39,0,0,1,1.13.32c.57-.61,1.68-.93,3.32-.93a4.71,4.71,0,0,1,2.19.43h1.08a12,12,0,0,0-.72-3.84,8.65,8.65,0,0,1-7,.86v3.16Z"/><path class="cls-12" d="M19.89,26.09c0-.16,0-.32,0-.48a2.65,2.65,0,0,1,.08-.64l-.22-.08-.3-.11V23.63h.76c.31-1.93,1-4.25,2.47-5.29a15.64,15.64,0,0,0,5,2.3,8.65,8.65,0,0,0,7-.86,12,12,0,0,1,.72,3.84h.51v1.15l-.32.11-.16.05c0,.12,0,.23,0,.35a3,3,0,0,1,0,.32c0,.06,0,.13,0,.2a.13.13,0,0,0,.22-.05c.06-.21.13-.46.2-.73a14.55,14.55,0,0,0,.3-6.84,5.75,5.75,0,0,0,.68-3.7.47.47,0,0,0-.52-.41c-1.8.21-1.9-.18-5-2a6.83,6.83,0,0,0-7.69.43c-6.92,1.6-5.33,9.25-4.26,12.59.12.38.23.7.33,1A.13.13,0,0,0,19.89,26.09Z"/><path class="cls-13" d="M28.38,25a2,2,0,0,0,0,.69c.33,1.61,1,3.26,3.72,3.26,2.87,0,3.31-1.73,3.34-3.13,0-.07,0-.13,0-.2a3,3,0,0,0,0-.32,2.39,2.39,0,0,0,0-.33h0l.16-.05.32-.11V23.63H34.31a4.71,4.71,0,0,0-2.19-.43c-1.64,0-2.75.31-3.32.93a2.39,2.39,0,0,0-1.13-.32h0a2.39,2.39,0,0,0-1.12.31c-.57-.61-1.68-.92-3.32-.92a4.71,4.71,0,0,0-2.19.43h-1.6v1.15l.3.11.22.08a2.65,2.65,0,0,0-.08.64c0,.16,0,.32,0,.48.09,1.34.66,2.84,3.33,2.84s3.38-1.65,3.72-3.26a2,2,0,0,0,0-.7,1.29,1.29,0,0,1,.7-.16h0A1.27,1.27,0,0,1,28.38,25Zm.79-.4c.29-.36,1-.79,2.95-.79,2.76,0,2.76,1.37,2.76,1.82,0,1.42-.33,2.73-2.76,2.73-2.13,0-2.79-1.12-3.14-2.79A1.11,1.11,0,0,1,29.17,24.58Zm-2.81,1c-.35,1.68-1,2.79-3.14,2.79-2.42,0-2.76-1.31-2.76-2.73,0-.45,0-1.82,2.76-1.82,1.9,0,2.65.43,2.95.79A1.11,1.11,0,0,1,26.36,25.55Z"/></g></g></svg>