<?xml version="1.0" encoding="utf-8"?>
<!-- Generator: Adobe Illustrator 21.0.0, SVG Export Plug-In . SVG Version: 6.00 Build 0)  -->
<svg version="1.1" id="Layer_1" xmlns="http://www.w3.org/2000/svg" xmlns:xlink="http://www.w3.org/1999/xlink" x="0px" y="0px"
	 viewBox="0 0 52.6 52.6" style="enable-background:new 0 0 52.6 52.6;" xml:space="preserve">
<style type="text/css">
	.st0{fill:#2397BC;}
	.st1{fill:#39C8EB;}
</style>
<title>image_cancel_membership_sadface</title>
<circle class="st0" cx="18.7" cy="20.8" r="3.3"/>
<circle class="st0" cx="34" cy="20.8" r="3.3"/>
<path class="st0" d="M26.3,35.2c3.6-0.1,7.1,0.9,10.1,2.9l1-1.3c-2.1-2.5-6-6.1-11.2-6.1s-9.1,3.6-11.2,6.1l1,1.3
	C19.2,36.1,22.7,35.1,26.3,35.2z"/>
<circle class="st1" cx="26.3" cy="26.3" r="26.3"/>
<circle class="st0" cx="34" cy="20.8" r="3.3"/>
<circle class="st0" cx="18.7" cy="20.8" r="3.3"/>
<path class="st0" d="M26.3,30.7c5.1,0,9.1,3.6,11.2,6.1l-1,1.3c-3-2-6.6-3-10.2-2.9c-3.6-0.1-7.1,0.9-10.1,2.9l-1-1.3
	C17.3,34.3,21.2,30.7,26.3,30.7z"/>
</svg>
