<?xml version="1.0" encoding="utf-8"?>
<!-- Generator: Adobe Illustrator 21.0.0, SVG Export Plug-In . SVG Version: 6.00 Build 0)  -->
<svg version="1.1" id="Layer_1" xmlns="http://www.w3.org/2000/svg" xmlns:xlink="http://www.w3.org/1999/xlink" x="0px" y="0px"
	 viewBox="0 0 32 46" enable-background="new 0 0 32 46" xml:space="preserve">
<g>
	<g>
		<linearGradient id="XMLID_3_" gradientUnits="userSpaceOnUse" x1="14.049" y1="34.3698" x2="29.951" y2="34.3698">
			<stop  offset="0" style="stop-color:#000000;stop-opacity:0.45"/>
			<stop  offset="1" style="stop-color:#000000;stop-opacity:0.4"/>
		</linearGradient>
		<polygon id="XMLID_130_" fill="url(#XMLID_3_)" points="14,38 30,30.7 14,30.7 		"/>
		<g id="XMLID_128_">
			<polygon id="XMLID_129_" fill="#1F94D2" points="26,26 26,8 2,8 2,26 2,26 14,38 26,26 			"/>
		</g>
		<g>
			<path fill="#FFFFFF" d="M17.6,22.8c-0.2,0-0.3,0-0.5,0c-0.3,0-0.5,0-0.8,0c-0.3,0-0.5,0-0.7,0c-0.2,0-0.4,0-0.6,0
				c-0.9,0-1.7-0.4-2.3-0.9c-0.6-0.6-0.9-1.4-0.9-2.3c0-1,0.4-1.8,1.3-2.5c0.5,0.7,0.9,1.5,1.4,2.4c0,0.1,0.1,0.1,0.2,0.1
				c0.1,0,0.2-0.1,0.2-0.1c0.1,0.2,0.2,0.3,0.3,0.5c0,0,0,0.1,0.1,0.1c0,0,0.1,0.1,0.1,0.1c0,0,0.1,0,0.1,0c0.1,0,0.1-0.1,0.2-0.1
				c0.2-0.1,0.4-0.2,0.6-0.3c0,0,0.1-0.1,0.1-0.1c0,0,0-0.1,0-0.1c-0.1-0.1-0.1-0.3-0.2-0.4c0-0.1-0.1-0.2-0.2-0.3c0,0,0,0,0,0
				c0,0,0.1,0,0.1-0.1c0.1-0.1,0.1-0.1,0.1-0.2c-0.6-1-1.2-2-1.7-3c-0.6-1.1-1.3-2.2-1.9-3.3c0-0.1-0.1-0.1-0.2-0.1
				c-0.1,0-0.2,0-0.2,0.1c-0.1-0.1-0.2-0.3-0.2-0.5c0,0-0.1-0.1-0.1-0.1c0,0-0.1,0-0.1,0c-0.2,0.1-0.5,0.2-0.7,0.4
				c-0.1,0.1-0.2,0.1-0.3,0.2c0,0-0.1,0.1-0.1,0.1c0,0,0,0.1,0,0.1c0,0.1,0.1,0.1,0.1,0.2c0.1,0.1,0.1,0.2,0.2,0.3
				c-0.1,0-0.2,0.1-0.2,0.2c0,0,0,0.1,0,0.1c0.4,0.6,0.7,1.3,1.1,1.9c0.1,0.2,0.2,0.3,0.3,0.5c-1.3,0.9-2,2.2-2.1,3.6
				c-0.1,1.6,0.5,2.7,1.2,3.5h-1.3c-0.1,0-0.2,0.1-0.2,0.2v1c0,0.1,0.1,0.2,0.2,0.2h7.5c0.1,0,0.2-0.1,0.2-0.2v-1
				C17.8,22.9,17.7,22.8,17.6,22.8z"/>
			<path fill="#FFFFFF" d="M18.2,20.2c0-0.1-0.1-0.2-0.2-0.3c0-0.1-0.1-0.1-0.1-0.2c0,0-0.1-0.1-0.1-0.1c0,0-0.1,0-0.1,0
				c-0.5,0.3-1,0.5-1.4,0.8c-0.5,0.3-1.1,0.6-1.6,0.9c-0.1,0-0.1,0.1-0.1,0.2c0,0.1,0.1,0.2,0.2,0.3c0,0.1,0.1,0.1,0.1,0.2
				c0,0,0.1,0.1,0.1,0.1c0,0,0,0,0.1,0c0,0,0.1,0,0.1,0c0.5-0.3,1-0.5,1.4-0.8c0.5-0.3,1.1-0.6,1.6-0.9
				C18.2,20.4,18.2,20.3,18.2,20.2z"/>
		</g>
	</g>
	<rect x="0" fill="none" width="32" height="46"/>
</g>
</svg>
