<?xml version="1.0" encoding="utf-8"?>
<!-- Generator: Adobe Illustrator 21.0.0, SVG Export Plug-In . SVG Version: 6.00 Build 0)  -->
<svg version="1.1" id="Layer_1" xmlns="http://www.w3.org/2000/svg" xmlns:xlink="http://www.w3.org/1999/xlink" x="0px" y="0px"
	 viewBox="0 0 32 46" enable-background="new 0 0 32 46" xml:space="preserve">
<g>
	<g>
		<linearGradient id="XMLID_3_" gradientUnits="userSpaceOnUse" x1="14.049" y1="34.3698" x2="29.951" y2="34.3698">
			<stop  offset="0" style="stop-color:#000000;stop-opacity:0.45"/>
			<stop  offset="1" style="stop-color:#000000;stop-opacity:0.4"/>
		</linearGradient>
		<polygon id="XMLID_158_" fill="url(#XMLID_3_)" points="14,38 30,30.7 14,30.7 		"/>
		<g id="XMLID_156_">
			<polygon id="XMLID_157_" fill="#1F94D2" points="26,26 26,8 2,8 2,26 2,26 14,38 26,26 			"/>
		</g>
		<g>
			<path fill="#FFFFFF" d="M18.7,14.7h-0.2c-0.5,0-0.9,0.4-0.9,0.9v2l-7.1,0v-2c0-0.5-0.4-0.9-0.9-0.9H9.4c-0.5,0-0.9,0.4-0.9,0.9
				v4.8c0,0.5,0.4,0.9,0.9,0.9h0.2c0.5,0,0.9-0.4,0.9-0.9v-2l7.1,0v2c0,0.5,0.4,0.9,0.9,0.9h0.2c0.5,0,0.9-0.4,0.9-0.9v-4.8
				C19.7,15.1,19.3,14.7,18.7,14.7z"/>
			<path fill="#FFFFFF" d="M20.8,15.9h-0.1c-0.3,0-0.6,0.3-0.6,0.6v3c0,0.3,0.3,0.6,0.6,0.6h0.1c0.3,0,0.6-0.3,0.6-0.6v-3
				C21.3,16.2,21.1,15.9,20.8,15.9z"/>
			<path fill="#FFFFFF" d="M7.5,15.9H7.3c-0.3,0-0.6,0.3-0.6,0.6v3c0,0.3,0.3,0.6,0.6,0.6h0.1c0.3,0,0.6-0.3,0.6-0.6v-3
				C8.1,16.2,7.8,15.9,7.5,15.9z"/>
		</g>
	</g>
	<rect fill="none" width="32" height="46"/>
</g>
</svg>
