<?xml version="1.0" encoding="utf-8"?>
<!-- Generator: Adobe Illustrator 21.0.0, SVG Export Plug-In . SVG Version: 6.00 Build 0)  -->
<svg version="1.1" id="Layer_1" xmlns="http://www.w3.org/2000/svg" xmlns:xlink="http://www.w3.org/1999/xlink" x="0px" y="0px"
	 viewBox="0 0 32 46" enable-background="new 0 0 32 46" xml:space="preserve">
<g>
	<g>
		<linearGradient id="XMLID_3_" gradientUnits="userSpaceOnUse" x1="14.049" y1="33.7967" x2="29.951" y2="33.7967">
			<stop  offset="0" style="stop-color:#000000;stop-opacity:0.45"/>
			<stop  offset="1" style="stop-color:#000000;stop-opacity:0.4"/>
		</linearGradient>
		<polygon id="XMLID_183_" fill="url(#XMLID_3_)" points="14,37.4 30,30.2 14,30.2 		"/>
		<g id="XMLID_181_">
			<polyline id="XMLID_1_" fill="#1F94D2" points="26,25.4 26,7.4 2,7.4 2,25.4 2,25.4 14,37.4 			"/>
		</g>
		<g>
			<path fill="#FFFFFF" d="M19,19.2l-5.9-5.9c-1.1-1.1-2.9-1.1-4.1,0c-1.1,1.1-1.1,2.9,0,4.1l5.9,5.9c1.1,1.1,2.9,1.1,4.1,0
				C20.1,22.1,20.1,20.3,19,19.2z M12.4,19.7l-2.9-2.9c-0.9-0.9-0.9-2.2,0-3.1c0.9-0.9,2.2-0.9,3.1,0l2.9,2.9L12.4,19.7z"/>
		</g>
	</g>
	<rect fill="none" width="32" height="46"/>
</g>
</svg>
