<?xml version="1.0" encoding="utf-8"?>
<!-- Generator: Adobe Illustrator 21.0.0, SVG Export Plug-In . SVG Version: 6.00 Build 0)  -->
<svg version="1.1" id="Layer_1" xmlns="http://www.w3.org/2000/svg" xmlns:xlink="http://www.w3.org/1999/xlink" x="0px" y="0px"
	 viewBox="0 0 32 46" enable-background="new 0 0 32 46" xml:space="preserve">
<g>
	<g>
		<linearGradient id="XMLID_3_" gradientUnits="userSpaceOnUse" x1="14.049" y1="34.3698" x2="29.951" y2="34.3698">
			<stop  offset="0" style="stop-color:#000000;stop-opacity:0.45"/>
			<stop  offset="1" style="stop-color:#000000;stop-opacity:0.4"/>
		</linearGradient>
		<polygon id="XMLID_197_" fill="url(#XMLID_3_)" points="14,38 30,30.7 14,30.7 		"/>
		<g id="XMLID_195_">
			<polygon id="XMLID_196_" fill="#1F94D2" points="26,26 26,8 2,8 2,26 2,26 14,38 26,26 			"/>
		</g>
		<g>
			<path fill="#FFFFFF" d="M19.7,17.2l-4.9-4.9c-0.5-0.5-1.2-0.5-1.7,0l-4.9,4.9c-0.7,0.7-0.2,2,0.8,2h0.7v3.5
				c0,0.7,0.6,1.2,1.2,1.2h5.8c0.7,0,1.2-0.6,1.2-1.2v-3.5h0.7C20,19.3,20.5,18,19.7,17.2z M16.1,19.9l-1.5,0v1.5h-1.2v-1.5H12v-1.2
				h1.5v-1.5h1.2v1.5l1.5,0V19.9z"/>
		</g>
	</g>
	<rect fill="none" width="32" height="46"/>
</g>
</svg>
