<?xml version="1.0" encoding="utf-8"?>
<!-- Generator: Adobe Illustrator 21.0.0, SVG Export Plug-In . SVG Version: 6.00 Build 0)  -->
<svg version="1.1" id="Layer_1" xmlns="http://www.w3.org/2000/svg" xmlns:xlink="http://www.w3.org/1999/xlink" x="0px" y="0px"
	 viewBox="0 0 32 46" enable-background="new 0 0 32 46" xml:space="preserve">
<g>
	<linearGradient id="XMLID_6_" gradientUnits="userSpaceOnUse" x1="14.049" y1="34.3698" x2="29.951" y2="34.3698">
		<stop  offset="0" style="stop-color:#000000;stop-opacity:0.45"/>
		<stop  offset="1" style="stop-color:#000000;stop-opacity:0.4"/>
	</linearGradient>
	<polygon id="XMLID_4_" fill="url(#XMLID_6_)" points="14,38 30,30.7 14,30.7 	"/>
	<g id="XMLID_2_">
		<polygon id="XMLID_3_" fill="#1F94D2" points="26,26 26,8 2,8 2,26 2,26 14,38 26,26 		"/>
	</g>
	<rect fill="none" width="32" height="46"/>
	<g id="XMLID_376_">
		<path id="XMLID_409_" fill="#FFFFFF" d="M21.6,17.2c0,0.2-0.1,0.4-0.1,0.6c-0.2,0.7-0.4,1.4-0.9,2.1c-0.5,0.7-1,1.3-1.6,1.9
			c-0.9,0.9-1.9,1.8-3,2.5c-0.5,0.4-1.1,0.7-1.6,1.1c-0.2,0.2-0.5,0.2-0.7,0c-0.6-0.4-1.2-0.8-1.8-1.3c-0.5-0.3-0.9-0.7-1.3-1
			c-0.1,0-0.1,0-0.1,0C10,23.6,9.5,24,9,24.5c-0.3,0.3-0.5,0.5-0.8,0.8c-0.2,0.2-0.5,0.2-0.7,0c-0.2-0.2-0.2-0.5,0-0.7
			c0.3-0.3,0.6-0.6,0.9-0.9c0.4-0.4,0.8-0.8,1.2-1.1c0,0,0-0.1,0.1-0.1c-0.1-0.1-0.2-0.2-0.3-0.3c-0.6-0.5-1.1-1.1-1.6-1.8
			c-0.4-0.5-0.7-1.1-1-1.7c-0.4-1.1-0.4-2.1,0-3.2c0.2-0.6,0.5-1.1,1-1.6c0.4-0.4,0.9-0.8,1.4-1c0.7-0.3,1.5-0.4,2.3-0.3
			c0.7,0.1,1.4,0.3,2.1,0.7c0.2,0.1,0.3,0.2,0.5,0.4c0.1,0.1,0.1,0.1,0.2,0c0.5-0.5,1.2-0.8,1.9-1c0.9-0.2,1.7-0.2,2.6,0.1
			c0.8,0.3,1.4,0.7,2,1.4c0.6,0.7,0.9,1.5,1,2.4c0,0,0,0.1,0,0.1C21.6,16.7,21.6,17,21.6,17.2z M11.3,22.3c0.1,0.1,0.3,0.2,0.4,0.3
			c0.7,0.5,1.5,1.1,2.2,1.6c0,0,0.1,0,0.1,0c0.5-0.4,1.1-0.7,1.6-1.1c0.7-0.6,1.4-1.1,2.1-1.7c0.6-0.6,1.2-1.2,1.7-1.8
			c0.4-0.5,0.7-1.1,0.9-1.7c0.2-0.8,0.2-1.6-0.1-2.4c-0.5-1.1-1.3-1.7-2.5-2c-0.7-0.1-1.4-0.1-2,0.2c-0.5,0.2-0.9,0.5-1.3,0.9
			c-0.2,0.3-0.6,0.3-0.8,0c-0.1-0.1-0.2-0.3-0.4-0.4c-0.5-0.5-1.2-0.8-1.9-0.8C10.5,13.4,9.7,13.6,9,14c-0.6,0.4-1.1,1-1.3,1.8
			c-0.3,1-0.1,2,0.3,2.9c0.2,0.5,0.6,1,1,1.4c0.4,0.5,0.9,1,1.4,1.5c0.1,0,0.1,0,0.1,0c0.3-0.3,0.6-0.6,0.9-0.9c0.1-0.1,0-0.1,0-0.2
			c-0.1-0.1-0.1-0.2-0.2-0.4c-0.3-0.6-0.3-1.2-0.2-1.8c0.2-0.8,0.6-1.5,1.3-2c0.9-0.5,1.8-0.6,2.7-0.3c1,0.3,1.6,1,1.9,2
			c0.2,0.6,0.1,1.1,0,1.7c-0.2,0.7-0.7,1.3-1.4,1.7c-0.6,0.3-1.2,0.4-1.8,0.4c-0.5-0.1-1-0.2-1.4-0.5c-0.1,0-0.1,0-0.1,0
			c-0.1,0.1-0.2,0.2-0.4,0.3C11.7,22,11.5,22.2,11.3,22.3z M14,20.9c1.1,0,2-0.8,2-1.9c0-1.1-0.9-2-2-2c-1.1,0-2,0.9-2,2
			C12.1,20,12.9,20.9,14,20.9z"/>
	</g>
</g>
</svg>
